<svg version="1.1" id="Layer_1" xmlns="http://www.w3.org/2000/svg" xmlns:xlink="http://www.w3.org/1999/xlink" x="0px" y="0px"
	 width="100%" viewBox="0 0 62 55" enable-background="new 0 0 62 55" xml:space="preserve">
<path fill="#FEFEFE" opacity="1.000000" stroke="none" 
	d="
M43.000957,56.000000 
	C28.667442,56.000000 14.834130,56.000000 1.000613,56.000000 
	C1.000409,37.666965 1.000409,19.333933 1.000204,1.000674 
	C21.666336,1.000450 42.332672,1.000450 62.999256,1.000225 
	C62.999504,19.332975 62.999504,37.665951 62.999752,55.999466 
	C56.500385,56.000000 50.000774,56.000000 43.000957,56.000000 
M32.791035,41.032471 
	C33.517117,41.034744 34.243195,41.037018 35.139061,41.554348 
	C35.246788,41.699512 35.354515,41.844681 35.375343,42.772438 
	C36.153057,43.851601 36.897076,45.836788 37.713799,45.867165 
	C44.489124,46.119144 51.277885,46.009926 58.062588,46.009926 
	C58.063324,45.478180 58.064060,44.946430 58.064796,44.414684 
	C52.680477,44.414684 47.288910,44.565109 41.917049,44.306400 
	C40.612934,44.243591 39.373718,42.833260 39.011925,42.066193 
	C42.219318,42.066193 45.426712,42.066193 49.505783,42.066193 
	C47.705650,37.535069 51.998299,32.528870 45.935085,29.300043 
	C43.969910,28.536505 42.004730,27.772966 39.823013,26.283194 
	C38.217548,25.863220 36.612083,25.443247 35.009029,24.533451 
	C35.009029,24.533451 34.989361,24.044018 35.447300,23.830765 
	C35.638889,23.555716 35.830479,23.280668 36.794758,22.818338 
	C37.126789,19.321819 37.634789,15.826026 37.649212,12.328196 
	C37.652267,11.587787 35.942310,10.381227 34.866955,10.167458 
	C25.536257,8.312618 23.913383,9.689087 24.009693,19.022779 
	C24.013107,19.353706 24.035099,19.684439 23.170990,20.031767 
	C21.246469,20.031767 19.321951,20.031767 17.327759,20.031767 
	C16.905115,22.475498 16.599184,24.244392 16.217800,26.966307 
	C16.506086,27.857546 16.794374,28.748785 16.777493,30.118847 
	C16.749088,30.490772 16.720682,30.862696 15.988260,31.034151 
	C14.954259,31.911980 13.920258,32.789810 12.086635,33.839432 
	C11.074754,37.041786 10.062874,40.244141 9.006786,43.586395 
	C7.495613,43.953316 5.674687,44.395443 3.853761,44.837570 
	C13.039143,46.545017 13.033925,46.544987 13.084966,38.079041 
	C13.092978,36.750034 13.172873,35.421463 14.025002,34.115810 
	C14.705251,35.178577 15.893897,36.199646 15.985033,37.310738 
	C16.691671,45.925636 16.626102,45.931026 25.112860,45.928974 
	C26.106392,45.928734 27.110037,45.836666 28.091570,45.945015 
	C31.121305,46.279469 32.454498,45.030819 32.074512,41.494690 
	C32.074512,41.494690 32.064369,41.007099 32.002270,41.023315 
	C32.002270,41.023315 32.063686,41.042179 32.791035,41.032471 
z"/>
<path fill="#CCD1D9" opacity="1.000000" stroke="none" 
	d="
M31.981190,41.973316 
	C32.454498,45.030819 31.121305,46.279469 28.091570,45.945015 
	C27.110037,45.836666 26.106392,45.928734 25.112860,45.928974 
	C16.626102,45.931026 16.691671,45.925636 15.985033,37.310738 
	C15.893897,36.199646 14.705251,35.178577 13.514503,34.017151 
	C13.004004,33.918495 12.886255,33.667637 12.886255,33.667637 
	C13.920258,32.789810 14.954259,31.911980 16.547142,31.216667 
	C19.251738,30.957197 21.397453,30.515213 24.145580,29.949139 
	C24.145580,34.250481 24.145580,37.960926 24.145580,41.973316 
	C27.099222,41.973316 29.540205,41.973316 31.981190,41.973316 
z"/>
<path fill="#C9CFD8" opacity="1.000000" stroke="none" 
	d="
M17.082661,29.640024 
	C16.794374,28.748785 16.506086,27.857546 16.598602,26.473301 
	C20.863091,22.775434 24.953367,22.459867 29.454361,25.333584 
	C30.496187,25.699881 31.338818,25.835138 32.123920,26.432362 
	C32.054226,31.213381 32.042061,35.532433 32.016567,40.150509 
	C32.023388,40.647079 32.043537,40.844627 32.063686,41.042179 
	C32.063686,41.042179 32.002270,41.023315 31.595980,40.923576 
	C29.289070,40.724213 27.388451,40.624596 25.253799,40.512707 
	C25.253799,36.386562 25.253799,32.686985 25.547222,28.934464 
	C26.230022,28.256588 26.619400,27.631657 27.144344,26.949566 
	C27.184383,26.925402 27.088854,26.958399 26.677498,26.993393 
	C25.941086,26.987282 25.520500,26.979174 24.721508,26.985876 
	C21.922953,27.880468 19.502808,28.760246 17.082661,29.640024 
z"/>
<path fill="#FAFAFA" opacity="1.000000" stroke="none" 
	d="
M40.039555,27.009426 
	C42.004730,27.772966 43.969910,28.536505 45.737686,29.808199 
	C45.883778,33.452530 46.227268,36.588707 46.570759,39.724884 
	C43.870270,39.864689 41.169907,40.007225 38.468948,40.137222 
	C38.313812,40.144695 38.153755,40.049946 37.991577,39.539932 
	C37.987812,36.117329 37.804283,33.140064 38.082996,30.206724 
	C38.189190,29.089081 39.356075,28.072220 40.039555,27.009426 
z"/>
<path fill="#C6C6C6" opacity="1.000000" stroke="none" 
	d="
M24.048433,20.015263 
	C24.035099,19.684439 24.013107,19.353706 24.009693,19.022779 
	C23.913383,9.689087 25.536257,8.312618 34.866955,10.167458 
	C35.942310,10.381227 37.652267,11.587787 37.649212,12.328196 
	C37.634789,15.826026 37.126789,19.321819 36.156876,22.913012 
	C35.351456,23.003916 35.183922,23.000145 34.758850,23.012203 
	C34.329647,23.038845 34.157970,23.049652 34.139378,22.671593 
	C34.564579,19.319731 34.836697,16.356737 35.113705,13.340481 
	C31.559851,13.340481 29.014437,13.340481 26.054214,13.340481 
	C26.054214,16.128494 26.054214,18.558266 25.791065,20.892265 
	C25.034754,20.536081 24.541594,20.275673 24.048433,20.015263 
z"/>
<path fill="#CCD1D9" opacity="1.000000" stroke="none" 
	d="
M23.609711,20.023514 
	C24.541594,20.275673 25.034754,20.536081 26.185492,20.890396 
	C28.445587,21.522697 30.048103,22.061094 31.650621,22.599493 
	C30.852135,23.433844 30.053650,24.268194 29.255165,25.102545 
	C24.953367,22.459867 20.863091,22.775434 16.636330,25.996790 
	C16.599184,24.244392 16.905115,22.475498 17.327759,20.031767 
	C19.321951,20.031767 21.246469,20.031767 23.609711,20.023514 
z"/>
<path fill="#9D9D9D" opacity="1.000000" stroke="none" 
	d="
M38.104660,42.042549 
	C39.373718,42.833260 40.612934,44.243591 41.917049,44.306400 
	C47.288910,44.565109 52.680477,44.414684 58.064796,44.414684 
	C58.064060,44.946430 58.063324,45.478180 58.062588,46.009926 
	C51.277885,46.009926 44.489124,46.119144 37.713799,45.867165 
	C36.897076,45.836788 36.153057,43.851601 35.746670,42.381828 
	C36.780216,42.008327 37.442440,42.025440 38.104660,42.042549 
z"/>
<path fill="#BDBDBE" opacity="1.000000" stroke="none" 
	d="
M39.931282,26.646311 
	C39.356075,28.072220 38.189190,29.089081 38.082996,30.206724 
	C37.804283,33.140064 37.987812,36.117329 37.633583,39.537720 
	C36.566513,40.027794 35.853024,40.057247 35.134670,39.615330 
	C35.088741,34.437065 35.047680,29.730169 35.006618,25.023272 
	C36.612083,25.443247 38.217548,25.863220 39.931282,26.646311 
z"/>
<path fill="#C0C0C0" opacity="1.000000" stroke="none" 
	d="
M13.111767,34.005592 
	C13.172873,35.421463 13.092978,36.750034 13.084966,38.079041 
	C13.033925,46.544987 13.039143,46.545017 3.853761,44.837570 
	C5.674687,44.395443 7.495613,43.953316 9.006786,43.586395 
	C10.062874,40.244141 11.074754,37.041786 12.486444,33.753532 
	C12.886255,33.667637 13.004004,33.918495 13.111767,34.005592 
z"/>
<path fill="#F6F7F8" opacity="1.000000" stroke="none" 
	d="
M35.007824,24.778362 
	C35.047680,29.730169 35.088741,34.437065 35.111870,39.608509 
	C35.093937,40.073055 35.076942,40.115582 34.694275,40.089928 
	C33.551037,39.993343 32.790470,39.922417 32.029900,39.851486 
	C32.042061,35.532433 32.054226,31.213381 32.382149,26.282055 
	C33.127369,24.800009 33.556835,23.930235 33.986298,23.060461 
	C34.157970,23.049652 34.329647,23.038845 34.771706,23.274635 
	C35.024513,23.695494 35.006935,23.869757 34.989361,24.044018 
	C34.989361,24.044018 35.009029,24.533451 35.007824,24.778362 
z"/>
<path fill="#9A9A9A" opacity="1.000000" stroke="none" 
	d="
M35.116737,40.079876 
	C35.853024,40.057247 36.566513,40.027794 37.637993,40.000557 
	C38.153755,40.049946 38.313812,40.144695 38.468948,40.137222 
	C41.169907,40.007225 43.870270,39.864689 46.570759,39.724884 
	C46.227268,36.588707 45.883778,33.452530 45.771408,30.084166 
	C51.998299,32.528870 47.705650,37.535069 49.505783,42.066193 
	C45.426712,42.066193 42.219318,42.066193 38.558292,42.054375 
	C37.442440,42.025440 36.780216,42.008327 35.790123,41.990536 
	C35.354515,41.844681 35.246788,41.699512 35.087860,41.066528 
	C35.036659,40.578705 35.076942,40.115582 35.076942,40.115582 
	C35.076942,40.115582 35.093937,40.073055 35.116737,40.079876 
z"/>
<path fill="#7E8185" opacity="1.000000" stroke="none" 
	d="
M16.930077,29.879436 
	C19.502808,28.760246 21.922953,27.880468 24.735920,27.323078 
	C25.170427,28.092783 25.212112,28.540096 25.253799,28.987410 
	C25.253799,32.686985 25.253799,36.386562 25.253799,40.512707 
	C27.388451,40.624596 29.289070,40.724213 31.627029,40.915466 
	C32.064369,41.007099 32.074512,41.494690 32.027851,41.734001 
	C29.540205,41.973316 27.099222,41.973316 24.145580,41.973316 
	C24.145580,37.960926 24.145580,34.250481 24.145580,29.949139 
	C21.397453,30.515213 19.251738,30.957197 16.899151,31.316902 
	C16.720682,30.862696 16.749088,30.490772 16.930077,29.879436 
z"/>
<path fill="#BDBDBE" opacity="1.000000" stroke="none" 
	d="
M34.694275,40.089928 
	C35.076942,40.115582 35.036659,40.578705 35.002968,40.808998 
	C34.243195,41.037018 33.517117,41.034744 32.427361,41.037323 
	C32.043537,40.844627 32.023388,40.647079 32.016571,40.150509 
	C32.790470,39.922417 33.551037,39.993343 34.694275,40.089928 
z"/>
<path fill="#BDBDBE" opacity="1.000000" stroke="none" 
	d="
M35.218330,23.937391 
	C35.006935,23.869757 35.024513,23.695494 35.029236,23.258802 
	C35.183922,23.000145 35.351456,23.003916 35.770531,23.006653 
	C35.830479,23.280668 35.638889,23.555716 35.218330,23.937391 
z"/>
<path fill="#E6E8EA" opacity="1.000000" stroke="none" 
	d="
M34.139378,22.671593 
	C33.556835,23.930235 33.127369,24.800009 32.439678,25.820089 
	C31.338818,25.835138 30.496187,25.699881 29.454361,25.333584 
	C30.053650,24.268194 30.852135,23.433844 31.650621,22.599493 
	C30.048103,22.061094 28.445587,21.522697 26.448643,20.986168 
	C26.054214,18.558266 26.054214,16.128494 26.054214,13.340481 
	C29.014437,13.340481 31.559851,13.340481 35.113705,13.340481 
	C34.836697,16.356737 34.564579,19.319731 34.139378,22.671593 
z"/>
<path fill="#CCD1D9" opacity="1.000000" stroke="none" 
	d="
M25.547222,28.934464 
	C25.212112,28.540096 25.170427,28.092783 25.114328,27.308266 
	C25.520500,26.979174 25.941086,26.987282 26.680855,26.997696 
	C27.000038,27.000000 27.008776,27.006725 27.008778,27.006725 
	C26.619400,27.631657 26.230022,28.256588 25.547222,28.934464 
z"/>
<path fill="#CCD1D9" opacity="1.000000" stroke="none" 
	d="
M26.996681,26.995697 
	C27.088854,26.958399 27.184383,26.925402 27.144344,26.949566 
	C27.008776,27.006725 27.000038,27.000000 26.996681,26.995697 
z"/>
</svg>